<svg xmlns="http://www.w3.org/2000/svg" width="1600" height="900" viewBox="0 0 1600 900">
    <defs><linearGradient id="g" x1="0" x2="1"><stop stop-color="#5b5ce2"/><stop offset="1" stop-color="#11b8a6"/></linearGradient><filter id="s"><feDropShadow dx="0" dy="10" stdDeviation="16" flood-opacity=".15"/></filter></defs>
    <rect width="100%" height="100%" fill="#f7f8fc"/><rect x="0" y="0" width="100%" height="120" fill="url(#g)"/>
    <text x="70" y="72" font-family="Inter,Arial" font-size="42" font-weight="800" fill="white">Hermes — Complete System Architecture</text>
    <defs><marker id="a" markerWidth="12" markerHeight="12" refX="10" refY="6" orient="auto"><path d="M0,0 L12,6 L0,12 z" fill="#6b7280"/></marker></defs><g filter="url(#s)"><rect x="70" y="180" rx="24" width="250" height="110" fill="white" stroke="#dfe3ef" stroke-width="2"/><text x="94" y="222" font-family="Inter,Arial" font-size="24" font-weight="700" fill="#171a2b">Flutter App</text><text x="94" y="258" font-family="Inter,Arial" font-size="18" fill="#62697d">Mobile • Web • Accessibility</text></g><g filter="url(#s)"><rect x="410" y="180" rx="24" width="250" height="110" fill="white" stroke="#dfe3ef" stroke-width="2"/><text x="434" y="222" font-family="Inter,Arial" font-size="24" font-weight="700" fill="#171a2b">API Gateway</text><text x="434" y="258" font-family="Inter,Arial" font-size="18" fill="#62697d">HTTPS • Auth • Rate limits</text></g><g filter="url(#s)"><rect x="750" y="180" rx="24" width="250" height="110" fill="white" stroke="#dfe3ef" stroke-width="2"/><text x="774" y="222" font-family="Inter,Arial" font-size="24" font-weight="700" fill="#171a2b">Hermes Orchestrator</text><text x="774" y="258" font-family="Inter,Arial" font-size="18" fill="#62697d">Intent • Policy • Planning</text></g><g filter="url(#s)"><rect x="1090" y="180" rx="24" width="250" height="110" fill="white" stroke="#dfe3ef" stroke-width="2"/><text x="1114" y="222" font-family="Inter,Arial" font-size="24" font-weight="700" fill="#171a2b">AI Providers</text><text x="1114" y="258" font-family="Inter,Arial" font-size="18" fill="#62697d">Ollama • OpenAI-compatible</text></g><path d="M320 235 L400 235" stroke="#6b7280" stroke-width="4" marker-end="url(#a)"/><path d="M660 235 L740 235" stroke="#6b7280" stroke-width="4" marker-end="url(#a)"/><path d="M1000 235 L1080 235" stroke="#6b7280" stroke-width="4" marker-end="url(#a)"/><g filter="url(#s)"><rect x="180" y="390" rx="24" width="270" height="120" fill="white" stroke="#dfe3ef" stroke-width="2"/><text x="204" y="432" font-family="Inter,Arial" font-size="24" font-weight="700" fill="#171a2b">Voice Layer</text><text x="204" y="468" font-family="Inter,Arial" font-size="18" fill="#62697d">Whisper/STT • Piper/TTS</text></g><g filter="url(#s)"><rect x="570" y="390" rx="24" width="270" height="120" fill="white" stroke="#dfe3ef" stroke-width="2"/><text x="594" y="432" font-family="Inter,Arial" font-size="24" font-weight="700" fill="#171a2b">Learning Engine</text><text x="594" y="468" font-family="Inter,Arial" font-size="18" fill="#62697d">Curriculum • Grammar • Progress</text></g><g filter="url(#s)"><rect x="960" y="390" rx="24" width="270" height="120" fill="white" stroke="#dfe3ef" stroke-width="2"/><text x="984" y="432" font-family="Inter,Arial" font-size="24" font-weight="700" fill="#171a2b">Companion Layer</text><text x="984" y="468" font-family="Inter,Arial" font-size="18" fill="#62697d">Visemes • Emotion • Avatar</text></g><path d="M875 290 L315 380" stroke="#6b7280" stroke-width="4" marker-end="url(#a)"/><path d="M875 290 L705 380" stroke="#6b7280" stroke-width="4" marker-end="url(#a)"/><path d="M875 290 L1095 380" stroke="#6b7280" stroke-width="4" marker-end="url(#a)"/><g filter="url(#s)"><rect x="120" y="610" rx="24" width="300" height="110" fill="white" stroke="#dfe3ef" stroke-width="2"/><text x="144" y="652" font-family="Inter,Arial" font-size="24" font-weight="700" fill="#171a2b">PostgreSQL</text><text x="144" y="688" font-family="Inter,Arial" font-size="18" fill="#62697d">Users • lessons • progress</text></g><g filter="url(#s)"><rect x="500" y="610" rx="24" width="300" height="110" fill="white" stroke="#dfe3ef" stroke-width="2"/><text x="524" y="652" font-family="Inter,Arial" font-size="24" font-weight="700" fill="#171a2b">Redis</text><text x="524" y="688" font-family="Inter,Arial" font-size="18" fill="#62697d">Sessions • cache • jobs</text></g><g filter="url(#s)"><rect x="880" y="610" rx="24" width="300" height="110" fill="white" stroke="#dfe3ef" stroke-width="2"/><text x="904" y="652" font-family="Inter,Arial" font-size="24" font-weight="700" fill="#171a2b">Elasticsearch</text><text x="904" y="688" font-family="Inter,Arial" font-size="18" fill="#62697d">Search • analytics • retrieval</text></g><g filter="url(#s)"><rect x="1260" y="610" rx="24" width="250" height="110" fill="white" stroke="#dfe3ef" stroke-width="2"/><text x="1284" y="652" font-family="Inter,Arial" font-size="24" font-weight="700" fill="#171a2b">Observability</text><text x="1284" y="688" font-family="Inter,Arial" font-size="18" fill="#62697d">Logs • metrics • traces</text></g><path d="M315 510 L270 600" stroke="#6b7280" stroke-width="4" marker-end="url(#a)"/><path d="M705 510 L650 600" stroke="#6b7280" stroke-width="4" marker-end="url(#a)"/><path d="M1095 510 L1030 600" stroke="#6b7280" stroke-width="4" marker-end="url(#a)"/><path d="M1225 450 L1370 600" stroke="#6b7280" stroke-width="4" marker-end="url(#a)"/>
    </svg>