<svg xmlns="http://www.w3.org/2000/svg" width="1600" height="900" viewBox="0 0 1600 900">
    <defs><linearGradient id="g" x1="0" x2="1"><stop stop-color="#5b5ce2"/><stop offset="1" stop-color="#11b8a6"/></linearGradient><filter id="s"><feDropShadow dx="0" dy="10" stdDeviation="16" flood-opacity=".15"/></filter></defs>
    <rect width="100%" height="100%" fill="#f7f8fc"/><rect x="0" y="0" width="100%" height="120" fill="url(#g)"/>
    <text x="70" y="72" font-family="Inter,Arial" font-size="42" font-weight="800" fill="white">Hermes — Community, Product & Growth Flywheel</text>
    <defs><marker id="a" markerWidth="12" markerHeight="12" refX="10" refY="6" orient="auto"><path d="M0,0 L12,6 L0,12 z" fill="#6b7280"/></marker></defs><g filter="url(#s)"><rect x="80" y="190" rx="24" width="300" height="140" fill="white" stroke="#dfe3ef" stroke-width="2"/><text x="104" y="232" font-family="Inter,Arial" font-size="24" font-weight="700" fill="#171a2b">Community</text><text x="104" y="268" font-family="Inter,Arial" font-size="18" fill="#62697d">Users • learners • translators • teachers</text></g><g filter="url(#s)"><rect x="500" y="190" rx="24" width="300" height="140" fill="white" stroke="#dfe3ef" stroke-width="2"/><text x="524" y="232" font-family="Inter,Arial" font-size="24" font-weight="700" fill="#171a2b">Open Source</text><text x="524" y="268" font-family="Inter,Arial" font-size="18" fill="#62697d">Issues • PRs • discussions • RFCs</text></g><g filter="url(#s)"><rect x="920" y="190" rx="24" width="300" height="140" fill="white" stroke="#dfe3ef" stroke-width="2"/><text x="944" y="232" font-family="Inter,Arial" font-size="24" font-weight="700" fill="#171a2b">Product</text><text x="944" y="268" font-family="Inter,Arial" font-size="18" fill="#62697d">Roadmap • experiments • releases</text></g><g filter="url(#s)"><rect x="1340" y="190" rx="24" width="180" height="140" fill="white" stroke="#dfe3ef" stroke-width="2"/><text x="1364" y="232" font-family="Inter,Arial" font-size="24" font-weight="700" fill="#171a2b">Business</text><text x="1364" y="268" font-family="Inter,Arial" font-size="18" fill="#62697d">B2C • B2B • API</text></g><path d="M380 260 L490 260" stroke="#6b7280" stroke-width="4" marker-end="url(#a)"/><path d="M800 260 L910 260" stroke="#6b7280" stroke-width="4" marker-end="url(#a)"/><path d="M1220 260 L1330 260" stroke="#6b7280" stroke-width="4" marker-end="url(#a)"/><g filter="url(#s)"><rect x="280" y="460" rx="24" width="300" height="120" fill="white" stroke="#dfe3ef" stroke-width="2"/><text x="304" y="502" font-family="Inter,Arial" font-size="24" font-weight="700" fill="#171a2b">Learning Data</text><text x="304" y="538" font-family="Inter,Arial" font-size="18" fill="#62697d">Anonymized metrics • feedback</text></g><g filter="url(#s)"><rect x="650" y="460" rx="24" width="300" height="120" fill="white" stroke="#dfe3ef" stroke-width="2"/><text x="674" y="502" font-family="Inter,Arial" font-size="24" font-weight="700" fill="#171a2b">Quality Loop</text><text x="674" y="538" font-family="Inter,Arial" font-size="18" fill="#62697d">Evals • bug triage • UX tests</text></g><g filter="url(#s)"><rect x="1020" y="460" rx="24" width="300" height="120" fill="white" stroke="#dfe3ef" stroke-width="2"/><text x="1044" y="502" font-family="Inter,Arial" font-size="24" font-weight="700" fill="#171a2b">Growth Loop</text><text x="1044" y="538" font-family="Inter,Arial" font-size="18" fill="#62697d">Content • referrals • social proof</text></g><path d="M650 330 L430 450" stroke="#6b7280" stroke-width="4" marker-end="url(#a)"/><path d="M800 330 L800 450" stroke="#6b7280" stroke-width="4" marker-end="url(#a)"/><path d="M1050 330 L1170 450" stroke="#6b7280" stroke-width="4" marker-end="url(#a)"/><g filter="url(#s)"><rect x="480" y="680" rx="24" width="640" height="100" fill="white" stroke="#dfe3ef" stroke-width="2"/><text x="504" y="722" font-family="Inter,Arial" font-size="24" font-weight="700" fill="#171a2b">Flywheel</text><text x="504" y="758" font-family="Inter,Arial" font-size="18" fill="#62697d">Better product → more users → more contributors → more languages → better product</text></g>
    </svg>